<svg id="Слой_1" data-name="Слой 1" xmlns="http://www.w3.org/2000/svg" viewBox="0 0 293 77.9">
  <defs>
    <style>
      .cls-1 {
        fill: #e42313;
      }

      .cls-2 {
        isolation: isolate;
      }

      .cls-3 {
        fill: #01579b;
      }
    </style>
  </defs>
  <title>logo-small1</title>
  <path class="cls-1" d="M64.5,2.4V73.1h-.6l-31.7,7h-.3L.3,73.3H0V2.4H.2V2.2H64.5ZM28,47.1h2c-1-4.3-2.6-7.6-4.8-9.8a8.4,8.4,0,0,0-5.9-2.9,6,6,0,0,0-3.4.9A4.4,4.4,0,0,0,14,37.7a3.9,3.9,0,0,0,.3,2.9,7.7,7.7,0,0,0,3,2.9l.5.3h.1c-1.6-3.2-1.3-4.7-.7-5.4s1.8-.8,3.3-.4a11.3,11.3,0,0,1,4.7,3.2,10.3,10.3,0,0,1,2.7,5.9ZM17.2,43.7h0a8.2,8.2,0,0,1-3.3-3.1,4.2,4.2,0,0,1-.4-3.1c.6-2.2,3.1-3.8,5.9-3.7s8.4,1.1,11.2,13.3h1.3v-34h0c0-.3,0-4.8.4-5.5s.4,5.2.4,5.5h0v34H34c2.8-12.2,9.2-13.4,11.1-13.4s5.3,1.5,5.9,3.7a4.2,4.2,0,0,1-.4,3.2,8.3,8.3,0,0,1-3.3,3.1h0A11.8,11.8,0,0,0,53.1,41a5.7,5.7,0,0,0,1.8-4,7.1,7.1,0,0,0-1.7-4.7,9.1,9.1,0,0,0-4.5-3,8.7,8.7,0,0,0-6.2.5,14.5,14.5,0,0,0-5.9,6,35.1,35.1,0,0,0,2-7.2,32.6,32.6,0,0,0,.3-8.2A21.5,21.5,0,0,0,37,12.9a13.5,13.5,0,0,0-4.7-5.5h0a13.5,13.5,0,0,0-4.7,5.5,21.5,21.5,0,0,0-2,7.5,32.6,32.6,0,0,0,.3,8.2,34.9,34.9,0,0,0,2,7.2A14.6,14.6,0,0,0,22,30a8.6,8.6,0,0,0-6.2-.5,9,9,0,0,0-4.5,3,7.1,7.1,0,0,0-1.7,4.6,5.7,5.7,0,0,0,1.8,4,11.7,11.7,0,0,0,5.7,2.7h.1ZM20.7,54a6.5,6.5,0,0,0-2.5,2.3,3.2,3.2,0,0,0-.4,2.3,3.7,3.7,0,0,0,3.4,2.6,6,6,0,0,0,4.2-1.4,13.9,13.9,0,0,0,4-5.9H27.9c-.5,2.3-3.1,4.4-5.2,4.9a2.3,2.3,0,0,1-2.4-.4c-.4-.5-.7-1.7.5-4.3h-.1ZM31.8,70.5ZM30.2,54h0c-3.1,7.9-7.7,8.1-9.1,8a4,4,0,0,1-3.8-2.9,3.4,3.4,0,0,1,.4-2.5,7,7,0,0,1,2.7-2.5h0a8.4,8.4,0,0,0-3.8,2.8,4.3,4.3,0,0,0-.8,3.2,4.9,4.9,0,0,0,1.8,2.8A6.1,6.1,0,0,0,21,64.4a7.1,7.1,0,0,0,5.2-1.6A15.5,15.5,0,0,0,30.6,56l-.5,1.4a24.1,24.1,0,0,0-2,7.9,11.8,11.8,0,0,0,4.1,9.6h.1c6.7-6,3.6-13.8,2.1-17.5L33.9,56a15.4,15.4,0,0,0,4.5,6.7,7.1,7.1,0,0,0,5.2,1.7A6.1,6.1,0,0,0,47,62.9,5,5,0,0,0,48.6,60a4.3,4.3,0,0,0-.8-3.2A8.4,8.4,0,0,0,44,54h0a7,7,0,0,1,2.7,2.6,3.4,3.4,0,0,1,.4,2.5A4,4,0,0,1,43.3,62c-1.3.1-5.9-.2-9.1-8H32.7V71.3a9.2,9.2,0,0,1-.4,3.5,14.2,14.2,0,0,1-.4-4.2v-.2h0V54H30.2Zm-4.6-2.2H38.9c.5-.1.7-.8.7-1.3s-.2-1.1-.7-1.2H25.6c-.5.1-.7.7-.7,1.2S25.1,51.7,25.6,51.8Zm12.8-2.7c.1-.1.1-.2.1-.5a1.8,1.8,0,0,0-1.6-1.2H27.6A1.8,1.8,0,0,0,26,48.6a.4.4,0,0,0,.1.5Zm-1.5,4.5a1.6,1.6,0,0,0,1.6-1,.4.4,0,0,0-.1-.5H26.1a.7.7,0,0,0-.1.5,1.6,1.6,0,0,0,1.6,1Zm9.8-9.7.5-.3a7.7,7.7,0,0,0,3-2.9,3.9,3.9,0,0,0,.3-2.9,4.4,4.4,0,0,0-1.9-2.4,6,6,0,0,0-3.4-.9,8.4,8.4,0,0,0-5.9,2.9c-2.1,2.2-3.7,5.5-4.8,9.8h2a10.3,10.3,0,0,1,2.7-5.9,11.4,11.4,0,0,1,4.7-3.2c1.5-.5,2.7-.3,3.3.4s.9,2.1-.7,5.4h.2ZM35,54h0a13.9,13.9,0,0,0,4,5.9,6,6,0,0,0,4.2,1.5,3.7,3.7,0,0,0,3.5-2.6,3.2,3.2,0,0,0-.3-2.3,6.2,6.2,0,0,0-2.3-2.3h-.3c1.2,2.6.9,3.8.5,4.3a2.3,2.3,0,0,1-2.4.4c-2.1-.5-4.7-2.6-5.2-4.9ZM32.7,70.5Z" transform="translate(0 -2.2)"/>
  <g class="cls-2">
    <path class="cls-3" d="M79.6,24.6V2.6h1.3V21.3L88.5,2.6h1.2v22H88.4V5.9L80.9,24.6Z" transform="translate(0 -2.2)"/>
    <path class="cls-3" d="M98.7,24.9a6.6,6.6,0,0,1-2.2-.3,4.2,4.2,0,0,1-1.5-.9,4.3,4.3,0,0,1-1-1.4,7.5,7.5,0,0,1-.5-1.8,14.5,14.5,0,0,1-.1-2.1V8.9a13.7,13.7,0,0,1,.2-2.1A7.4,7.4,0,0,1,94,5a4.2,4.2,0,0,1,1-1.4,4.3,4.3,0,0,1,1.5-.9,6.6,6.6,0,0,1,2.2-.3,6,6,0,0,1,2.4.4,3.5,3.5,0,0,1,1.6,1.3,5.8,5.8,0,0,1,.8,1.9,11.5,11.5,0,0,1,.3,2.6V9.7h-1.4V8.5a7.1,7.1,0,0,0-.8-3.7,3.1,3.1,0,0,0-2.8-1.2,4.6,4.6,0,0,0-2,.4A2.6,2.6,0,0,0,95.5,5a5.1,5.1,0,0,0-.6,1.6,12.2,12.2,0,0,0-.2,2.1v9.7a13.2,13.2,0,0,0,.1,1.8,6,6,0,0,0,.4,1.4,3,3,0,0,0,.7,1.1,3,3,0,0,0,1.1.6l1.6.2a4.2,4.2,0,0,0,1.8-.3,2.4,2.4,0,0,0,1.1-1,5,5,0,0,0,.5-1.5,11.5,11.5,0,0,0,.2-2.1V17.4h1.4v1.1a14.5,14.5,0,0,1-.1,2.1,7.2,7.2,0,0,1-.5,1.8,4.2,4.2,0,0,1-.9,1.4,3.9,3.9,0,0,1-1.4.9A6,6,0,0,1,98.7,24.9Z" transform="translate(0 -2.2)"/>
    <path class="cls-3" d="M109.5,24.6V3.8h-4.7V2.6h10.7V3.8H111V24.6Z" transform="translate(0 -2.2)"/>
    <path class="cls-3" d="M124.5,24.6a7.7,7.7,0,0,1-4.4,0,4,4,0,0,1-2.5-2.3,7.2,7.2,0,0,1-.5-1.8,13.4,13.4,0,0,1-.2-2.1V8.7a12.6,12.6,0,0,1,.2-2.1,6.6,6.6,0,0,1,.6-1.8,4.2,4.2,0,0,1,1-1.4,4.4,4.4,0,0,1,1.6-.9,6.9,6.9,0,0,1,2.2-.3,6.6,6.6,0,0,1,2.6.5,3.9,3.9,0,0,1,1.7,1.3,5.9,5.9,0,0,1,.9,2,11,11,0,0,1,.3,2.6v9.6a13.4,13.4,0,0,1-.2,2.1,7.1,7.1,0,0,1-.5,1.8,4.2,4.2,0,0,1-1,1.4A4.4,4.4,0,0,1,124.5,24.6Zm-4.2-1.2a5.5,5.5,0,0,0,3.9,0,2.6,2.6,0,0,0,1.2-1,4.8,4.8,0,0,0,.6-1.6,10.2,10.2,0,0,0,.2-2.1V8.5a10.5,10.5,0,0,0-.2-2,4.6,4.6,0,0,0-.6-1.5,2.7,2.7,0,0,0-1.2-1,5.7,5.7,0,0,0-3.9,0,2.7,2.7,0,0,0-1.2,1,4.5,4.5,0,0,0-.6,1.5,10.5,10.5,0,0,0-.2,2V18.7a10.6,10.6,0,0,0,.2,2.1,4.6,4.6,0,0,0,.6,1.6A2.7,2.7,0,0,0,120.4,23.3Z" transform="translate(0 -2.2)"/>
    <path class="cls-3" d="M131.4,24.6V2.6h5.2A6.5,6.5,0,0,1,139,3a3.5,3.5,0,0,1,1.6,1.2,5.3,5.3,0,0,1,.8,1.8,9.3,9.3,0,0,1,.3,2.3,9.7,9.7,0,0,1-.1,1.7,6,6,0,0,1-.5,1.6,4.7,4.7,0,0,1-.9,1.3,4,4,0,0,1-1.5.9,5.9,5.9,0,0,1-2,.3h-3.7V24.6Zm1.5-11.7h3.4a3.7,3.7,0,0,0,3-1.1,5.4,5.4,0,0,0,.9-3.6q0-2.6-.9-3.6a3.9,3.9,0,0,0-3-1h-3.4Z" transform="translate(0 -2.2)"/>
    <path class="cls-3" d="M144.3,24.6V2.6h1.3V21.3l7.5-18.7h1.2v22h-1.3V5.9l-7.5,18.7Z" transform="translate(0 -2.2)"/>
    <path class="cls-3" d="M166.6,24.6V14.4a12.4,12.4,0,0,1-3.2.5q-5.5,0-5.5-4.7V2.6h1.4v7.5a4.8,4.8,0,0,0,.2,1.5,2.9,2.9,0,0,0,.6,1.1l.9.7,1.2.3h1.4a9.2,9.2,0,0,0,3-.5V2.6h1.5v22Z" transform="translate(0 -2.2)"/>
    <path class="cls-3" d="M172.2,24.6V2.6h7.6V3.8h-6.1v8.8h5v1.2h-5v9.7h6.2v1.2Z" transform="translate(0 -2.2)"/>
    <path class="cls-3" d="M187.7,24.9a6.6,6.6,0,0,1-2.2-.3,4.2,4.2,0,0,1-1.5-.9,4.3,4.3,0,0,1-1-1.4,7.5,7.5,0,0,1-.5-1.8,14.5,14.5,0,0,1-.1-2.1V8.9a13.7,13.7,0,0,1,.2-2.1A7.4,7.4,0,0,1,183,5a4.2,4.2,0,0,1,1-1.4,4.3,4.3,0,0,1,1.5-.9,6.6,6.6,0,0,1,2.2-.3,6,6,0,0,1,2.4.4,3.5,3.5,0,0,1,1.6,1.3,5.8,5.8,0,0,1,.8,1.9,11.5,11.5,0,0,1,.3,2.6V9.7h-1.4V8.5a7.1,7.1,0,0,0-.8-3.7,3.1,3.1,0,0,0-2.8-1.2,4.6,4.6,0,0,0-2,.4A2.6,2.6,0,0,0,184.6,5a5.1,5.1,0,0,0-.6,1.6,12.2,12.2,0,0,0-.2,2.1v9.7a13.2,13.2,0,0,0,.1,1.8,6,6,0,0,0,.4,1.4,3,3,0,0,0,.7,1.1,3,3,0,0,0,1.1.6l1.6.2a4.2,4.2,0,0,0,1.8-.3,2.4,2.4,0,0,0,1.1-1,5.1,5.1,0,0,0,.5-1.5,11.5,11.5,0,0,0,.2-2.1V17.4h1.4v1.1a14.5,14.5,0,0,1-.1,2.1,7.3,7.3,0,0,1-.5,1.8,4.3,4.3,0,0,1-.9,1.4,3.9,3.9,0,0,1-1.4.9A6,6,0,0,1,187.7,24.9Z" transform="translate(0 -2.2)"/>
    <path class="cls-3" d="M196.1,24.6V2.6h1.5V12.9h1.8l4.8-10.3h1.5l-5,10.7,5.9,11.3h-1.5l-5.7-10.8h-1.8V24.6Z" transform="translate(0 -2.2)"/>
    <path class="cls-3" d="M216,24.6a7.7,7.7,0,0,1-4.4,0,4,4,0,0,1-2.5-2.3,7.2,7.2,0,0,1-.5-1.8,13.4,13.4,0,0,1-.2-2.1V8.7a12.7,12.7,0,0,1,.2-2.1,6.6,6.6,0,0,1,.6-1.8,4.2,4.2,0,0,1,1-1.4,4.4,4.4,0,0,1,1.6-.9,6.9,6.9,0,0,1,2.2-.3,6.6,6.6,0,0,1,2.6.5,3.9,3.9,0,0,1,1.7,1.3,5.9,5.9,0,0,1,.9,2,11,11,0,0,1,.3,2.6v9.6a13.4,13.4,0,0,1-.2,2.1,7.1,7.1,0,0,1-.5,1.8,4.2,4.2,0,0,1-1,1.4A4.4,4.4,0,0,1,216,24.6Zm-4.2-1.2a5.5,5.5,0,0,0,3.9,0,2.6,2.6,0,0,0,1.2-1,4.8,4.8,0,0,0,.6-1.6,10.2,10.2,0,0,0,.2-2.1V8.5a10.5,10.5,0,0,0-.2-2,4.6,4.6,0,0,0-.6-1.5,2.7,2.7,0,0,0-1.2-1,5.7,5.7,0,0,0-3.9,0,2.7,2.7,0,0,0-1.2,1,4.6,4.6,0,0,0-.6,1.5,10.5,10.5,0,0,0-.2,2V18.7a10.6,10.6,0,0,0,.2,2.1,4.6,4.6,0,0,0,.6,1.6A2.7,2.7,0,0,0,211.9,23.3Z" transform="translate(0 -2.2)"/>
    <path class="cls-3" d="M222.8,24.6V2.6h7.6V3.8h-6.1v8.8h5v1.2h-5v9.7h6.2v1.2Z" transform="translate(0 -2.2)"/>
    <path class="cls-3" d="M238.7,24.6V2.6h8.5V3.7h-7v8.1h2.4a5.7,5.7,0,0,1,4.5,1.6,7.1,7.1,0,0,1,1.4,4.9,6.9,6.9,0,0,1-1.4,4.6,5.5,5.5,0,0,1-4.4,1.7Zm1.5-1.2h2.5a4,4,0,0,0,3.3-1.2,6.1,6.1,0,0,0,1-3.8,6.5,6.5,0,0,0-1-3.9,3.9,3.9,0,0,0-3.3-1.3h-2.5Z" transform="translate(0 -2.2)"/>
    <path class="cls-3" d="M260.6,24.9a6.4,6.4,0,0,1-2.6-.5,3.8,3.8,0,0,1-1.7-1.4,6.3,6.3,0,0,1-.8-2,11.9,11.9,0,0,1-.3-2.6V14.1h-2.3V24.6h-1.4V2.6h1.4V12.9h2.3V8.8a11.3,11.3,0,0,1,.3-2.6,5.9,5.9,0,0,1,.9-2A3.9,3.9,0,0,1,258,2.8a6.4,6.4,0,0,1,2.6-.5,6.4,6.4,0,0,1,2.6.5,3.9,3.9,0,0,1,1.7,1.4,6,6,0,0,1,.9,2,11.1,11.1,0,0,1,.3,2.6v9.6a13.5,13.5,0,0,1-.2,2.1,6.9,6.9,0,0,1-.5,1.8,4.4,4.4,0,0,1-1,1.4,4.3,4.3,0,0,1-1.5.9A6.7,6.7,0,0,1,260.6,24.9Zm0-1.2a4.7,4.7,0,0,0,1.9-.4,2.7,2.7,0,0,0,1.2-1,4.7,4.7,0,0,0,.6-1.6,9.9,9.9,0,0,0,.2-2V8.5a9.5,9.5,0,0,0-.2-2,4.7,4.7,0,0,0-.6-1.5,2.7,2.7,0,0,0-1.2-1,4.9,4.9,0,0,0-1.9-.3,3.5,3.5,0,0,0-3.1,1.3,6.4,6.4,0,0,0-.9,3.7V18.7a9.9,9.9,0,0,0,.2,2,4.6,4.6,0,0,0,.6,1.6,2.7,2.7,0,0,0,1.3,1A5,5,0,0,0,260.6,23.7Z" transform="translate(0 -2.2)"/>
    <path class="cls-3" d="M269.6,24.6V2.6h5.2a6.5,6.5,0,0,1,2.5.4,3.5,3.5,0,0,1,1.6,1.2,5.3,5.3,0,0,1,.8,1.8,9.2,9.2,0,0,1,.3,2.3,9.8,9.8,0,0,1-.1,1.7,6,6,0,0,1-.5,1.6,4.7,4.7,0,0,1-.9,1.3,4,4,0,0,1-1.5.9,5.9,5.9,0,0,1-2,.3h-3.7V24.6Zm1.5-11.7h3.4a3.7,3.7,0,0,0,3-1.1,5.4,5.4,0,0,0,.9-3.6q0-2.6-.9-3.6a3.9,3.9,0,0,0-3-1h-3.4Z" transform="translate(0 -2.2)"/>
    <path class="cls-3" d="M289.7,24.6a7.7,7.7,0,0,1-4.4,0,4,4,0,0,1-2.5-2.3,7.2,7.2,0,0,1-.5-1.8,13.5,13.5,0,0,1-.2-2.1V8.7a12.6,12.6,0,0,1,.2-2.1,6.5,6.5,0,0,1,.6-1.8,4.2,4.2,0,0,1,1-1.4,4.4,4.4,0,0,1,1.6-.9,6.9,6.9,0,0,1,2.2-.3,6.6,6.6,0,0,1,2.6.5,3.9,3.9,0,0,1,1.7,1.3,5.9,5.9,0,0,1,.9,2,11,11,0,0,1,.3,2.6v9.6a13.4,13.4,0,0,1-.2,2.1,7.1,7.1,0,0,1-.5,1.8,4.2,4.2,0,0,1-1,1.4A4.4,4.4,0,0,1,289.7,24.6Zm-4.2-1.2a5.5,5.5,0,0,0,3.9,0,2.6,2.6,0,0,0,1.2-1,4.8,4.8,0,0,0,.6-1.6,10.3,10.3,0,0,0,.2-2.1V8.5a10.6,10.6,0,0,0-.2-2,4.6,4.6,0,0,0-.6-1.5,2.7,2.7,0,0,0-1.2-1,5.7,5.7,0,0,0-3.9,0,2.7,2.7,0,0,0-1.2,1,4.5,4.5,0,0,0-.6,1.5,10.6,10.6,0,0,0-.2,2V18.7a10.7,10.7,0,0,0,.2,2.1,4.6,4.6,0,0,0,.6,1.6A2.7,2.7,0,0,0,285.6,23.3Z" transform="translate(0 -2.2)"/>
  </g>
  <g class="cls-2">
    <path class="cls-3" d="M79.1,73.1V57.4h1.1V73.1Z" transform="translate(0 -2.2)"/>
    <path class="cls-3" d="M86.6,73.3,85,73.1a3,3,0,0,1-1.1-.7,3.1,3.1,0,0,1-.7-1,5.4,5.4,0,0,1-.4-1.3,10.3,10.3,0,0,1-.1-1.5V61.9a9.8,9.8,0,0,1,.1-1.5,5.3,5.3,0,0,1,.4-1.3,3,3,0,0,1,.7-1,3.1,3.1,0,0,1,1.1-.6l1.6-.2a4.3,4.3,0,0,1,1.7.3,2.5,2.5,0,0,1,1.1.9,4.1,4.1,0,0,1,.6,1.4,8.2,8.2,0,0,1,.2,1.8v.8h-1v-.8a5.1,5.1,0,0,0-.6-2.7,2.2,2.2,0,0,0-2-.9,3.3,3.3,0,0,0-1.4.3,1.9,1.9,0,0,0-.9.8,3.6,3.6,0,0,0-.4,1.2,8.7,8.7,0,0,0-.1,1.5v7a9.4,9.4,0,0,0,.1,1.3,4.2,4.2,0,0,0,.3,1,2.2,2.2,0,0,0,.5.8l.8.5,1.1.2,1.3-.2a1.7,1.7,0,0,0,.8-.7,3.6,3.6,0,0,0,.4-1.1,8.2,8.2,0,0,0,.1-1.5v-.9h1v.8a10.4,10.4,0,0,1-.1,1.5,5.2,5.2,0,0,1-.4,1.3,3,3,0,0,1-.6,1,2.8,2.8,0,0,1-1,.6Z" transform="translate(0 -2.2)"/>
    <path class="cls-3" d="M94.3,73.1V58.2H91v-.8h7.6v.8H95.3V73.1Z" transform="translate(0 -2.2)"/>
    <path class="cls-3" d="M105.1,73.1l-1.6.2-1.6-.2a2.8,2.8,0,0,1-1.8-1.6,5.1,5.1,0,0,1-.4-1.3,9.6,9.6,0,0,1-.1-1.5V61.8a9,9,0,0,1,.1-1.5,4.7,4.7,0,0,1,.4-1.3,3,3,0,0,1,.7-1l1.1-.6,1.5-.2a4.7,4.7,0,0,1,1.9.3,2.8,2.8,0,0,1,1.2,1,4.2,4.2,0,0,1,.6,1.4,7.9,7.9,0,0,1,.2,1.8v6.9a9.5,9.5,0,0,1-.1,1.5,5.1,5.1,0,0,1-.4,1.3,3,3,0,0,1-.7,1A3.1,3.1,0,0,1,105.1,73.1Zm-3-.9,1.4.3,1.4-.3a1.9,1.9,0,0,0,.9-.7,3.4,3.4,0,0,0,.4-1.1,7.3,7.3,0,0,0,.1-1.5V61.6a7.5,7.5,0,0,0-.1-1.5,3.3,3.3,0,0,0-.4-1.1,1.9,1.9,0,0,0-.9-.7l-1.4-.2-1.4.2a1.9,1.9,0,0,0-.9.7,3.3,3.3,0,0,0-.4,1.1,7.5,7.5,0,0,0-.1,1.5v7.3a7.6,7.6,0,0,0,.1,1.5,3.3,3.3,0,0,0,.4,1.1A1.9,1.9,0,0,0,102.1,72.2Z" transform="translate(0 -2.2)"/>
    <path class="cls-3" d="M109.9,73.1V57.4h3.7a4.6,4.6,0,0,1,1.8.3,2.5,2.5,0,0,1,1.1.9,3.8,3.8,0,0,1,.6,1.3,6.6,6.6,0,0,1,.2,1.6,6.9,6.9,0,0,1-.1,1.2,4.3,4.3,0,0,1-.4,1.1,3.3,3.3,0,0,1-.7.9,2.9,2.9,0,0,1-1,.6l-1.5.2H111v7.5Zm1.1-8.3h2.4a2.7,2.7,0,0,0,2.1-.8,3.9,3.9,0,0,0,.7-2.6,3.9,3.9,0,0,0-.6-2.6,2.8,2.8,0,0,0-2.2-.7H111Z" transform="translate(0 -2.2)"/>
    <path class="cls-3" d="M119.2,73.1V57.4h.9V70.8l5.4-13.4h.9V73.1h-.9V59.7l-5.4,13.4Z" transform="translate(0 -2.2)"/>
    <path class="cls-3" d="M135.1,73.1V65.8a8.8,8.8,0,0,1-2.3.3q-3.9,0-3.9-3.4V57.4h1v5.4a3.4,3.4,0,0,0,.2,1.1,2.1,2.1,0,0,0,.4.8l.7.5.8.2h1a6.6,6.6,0,0,0,2.2-.4V57.4h1.1V73.1Z" transform="translate(0 -2.2)"/>
    <path class="cls-3" d="M139.1,73.1V57.4h1.1v7.1h5.5V57.4h1.1V73.1h-1.1V65.3h-5.5v7.8Z" transform="translate(0 -2.2)"/>
    <path class="cls-3" d="M149.6,73.1V57.4H155v.8h-4.4v6.3h3.6v.8h-3.6v6.9h4.4v.8Z" transform="translate(0 -2.2)"/>
    <path class="cls-3" d="M160.9,73.1V57.4h6v.8h-5V64h1.7a4.1,4.1,0,0,1,3.2,1.2,5.1,5.1,0,0,1,1,3.5,4.9,4.9,0,0,1-1,3.3,3.9,3.9,0,0,1-3.2,1.2Zm1.1-.9h1.8a2.8,2.8,0,0,0,2.4-.9,4.4,4.4,0,0,0,.7-2.7,4.7,4.7,0,0,0-.7-2.8,2.8,2.8,0,0,0-2.4-1h-1.8Z" transform="translate(0 -2.2)"/>
    <path class="cls-3" d="M176.5,73.3a4.6,4.6,0,0,1-1.9-.3,2.7,2.7,0,0,1-1.2-1,4.5,4.5,0,0,1-.6-1.5,8.5,8.5,0,0,1-.2-1.9v-3H171v7.5h-1V57.4h1v7.4h1.7V61.8a8,8,0,0,1,.2-1.9,4.2,4.2,0,0,1,.6-1.4,2.8,2.8,0,0,1,1.2-1,4.6,4.6,0,0,1,1.8-.3,4.5,4.5,0,0,1,1.8.3,2.8,2.8,0,0,1,1.2,1,4.3,4.3,0,0,1,.6,1.4,8,8,0,0,1,.2,1.8v6.8a9.7,9.7,0,0,1-.1,1.5,4.9,4.9,0,0,1-.4,1.3,3.2,3.2,0,0,1-.7,1,3.1,3.1,0,0,1-1.1.6Zm0-.9,1.4-.3a1.9,1.9,0,0,0,.9-.7,3.4,3.4,0,0,0,.4-1.1,7.1,7.1,0,0,0,.1-1.5V61.6a6.8,6.8,0,0,0-.1-1.5,3.3,3.3,0,0,0-.5-1.1,2,2,0,0,0-.9-.7l-1.4-.2a2.5,2.5,0,0,0-2.2.9,4.6,4.6,0,0,0-.6,2.6v7.3a7,7,0,0,0,.1,1.5,3.3,3.3,0,0,0,.5,1.1,2,2,0,0,0,.9.7Z" transform="translate(0 -2.2)"/>
    <path class="cls-3" d="M183,73.1V57.4h3.7a4.6,4.6,0,0,1,1.8.3,2.5,2.5,0,0,1,1.1.9,3.8,3.8,0,0,1,.6,1.3,6.7,6.7,0,0,1,.2,1.6,6.9,6.9,0,0,1-.1,1.2,4.3,4.3,0,0,1-.4,1.1,3.3,3.3,0,0,1-.7.9,2.9,2.9,0,0,1-1,.6l-1.5.2H184v7.5Zm1.1-8.3h2.4a2.7,2.7,0,0,0,2.1-.8,3.9,3.9,0,0,0,.7-2.6,3.9,3.9,0,0,0-.6-2.6,2.8,2.8,0,0,0-2.2-.7H184Z" transform="translate(0 -2.2)"/>
    <path class="cls-3" d="M197.4,73.1l-1.6.2-1.6-.2a2.8,2.8,0,0,1-1.8-1.6,5.1,5.1,0,0,1-.4-1.3,9.6,9.6,0,0,1-.1-1.5V61.8a9.1,9.1,0,0,1,.1-1.5,4.7,4.7,0,0,1,.4-1.3,3,3,0,0,1,.7-1l1.1-.6,1.5-.2a4.7,4.7,0,0,1,1.9.3,2.8,2.8,0,0,1,1.2,1,4.2,4.2,0,0,1,.6,1.4,7.8,7.8,0,0,1,.2,1.8v6.9a9.5,9.5,0,0,1-.1,1.5,5,5,0,0,1-.4,1.3,3,3,0,0,1-.7,1A3.1,3.1,0,0,1,197.4,73.1Zm-3-.9,1.4.3,1.4-.3a1.9,1.9,0,0,0,.9-.7,3.4,3.4,0,0,0,.4-1.1,7.3,7.3,0,0,0,.1-1.5V61.6a7.5,7.5,0,0,0-.1-1.5A3.3,3.3,0,0,0,198,59a1.9,1.9,0,0,0-.9-.7l-1.4-.2-1.4.2a1.9,1.9,0,0,0-.9.7,3.3,3.3,0,0,0-.4,1.1,7.5,7.5,0,0,0-.1,1.5v7.3a7.6,7.6,0,0,0,.1,1.5,3.3,3.3,0,0,0,.4,1.1A1.9,1.9,0,0,0,194.4,72.2Z" transform="translate(0 -2.2)"/>
  </g>
  <g class="cls-2">
    <path class="cls-3" d="M79.3,49.6V30.7h1.3v8.5h6.6V30.7h1.3V49.6H87.2V40.2H80.6v9.4Z" transform="translate(0 -2.2)"/>
    <path class="cls-3" d="M92,49.6V30.7h1.3V49.6Z" transform="translate(0 -2.2)"/>
    <path class="cls-3" d="M100.5,49.8q-4.2,0-4.6-4.9l1.1-.4a13,13,0,0,0,.2,1.4,5.8,5.8,0,0,0,.4,1.1,3,3,0,0,0,.6.9l.9.6,1.3.2q3,0,3-3a4,4,0,0,0-.6-2.1,12.6,12.6,0,0,0-1.9-2.2L97.7,38A5,5,0,0,1,96,34.4a3.6,3.6,0,0,1,1.1-2.8,4.4,4.4,0,0,1,3-1h0a4.2,4.2,0,0,1,3.1,1.1,5.5,5.5,0,0,1,1.3,3.6l-1.1.3a6,6,0,0,0-.9-3,2.7,2.7,0,0,0-2.3-1h-.1a3.4,3.4,0,0,0-2.2.7,2.5,2.5,0,0,0-.8,2.1,3.3,3.3,0,0,0,.3,1.4,5.4,5.4,0,0,0,1.1,1.4l3.4,3.4a13.2,13.2,0,0,1,2.1,2.5,5,5,0,0,1,.7,2.6,4,4,0,0,1-1.1,3.1A4.4,4.4,0,0,1,100.5,49.8Z" transform="translate(0 -2.2)"/>
    <path class="cls-3" d="M109.4,49.6V31.8h-4v-1h9.2v1h-3.9V49.6Z" transform="translate(0 -2.2)"/>
    <path class="cls-3" d="M122.3,49.6a6.6,6.6,0,0,1-3.8,0,3.4,3.4,0,0,1-2.2-2,6.1,6.1,0,0,1-.5-1.5,11.5,11.5,0,0,1-.1-1.8V36a10.8,10.8,0,0,1,.1-1.8,5.6,5.6,0,0,1,.5-1.5,3.6,3.6,0,0,1,.9-1.2,3.8,3.8,0,0,1,1.3-.7,5.9,5.9,0,0,1,1.9-.3,5.6,5.6,0,0,1,2.2.4,3.3,3.3,0,0,1,1.4,1.1,5,5,0,0,1,.8,1.7,9.4,9.4,0,0,1,.2,2.2v8.3a11.5,11.5,0,0,1-.1,1.8,6.1,6.1,0,0,1-.5,1.5,3.6,3.6,0,0,1-.8,1.2A3.7,3.7,0,0,1,122.3,49.6Zm-3.6-1.1a4.7,4.7,0,0,0,3.3,0,2.3,2.3,0,0,0,1-.9,4.1,4.1,0,0,0,.5-1.3,8.8,8.8,0,0,0,.2-1.8V35.8a9,9,0,0,0-.1-1.8,3.9,3.9,0,0,0-.5-1.3,2.3,2.3,0,0,0-1-.9,4.8,4.8,0,0,0-3.3,0,2.3,2.3,0,0,0-1,.9,3.9,3.9,0,0,0-.5,1.3,9,9,0,0,0-.1,1.8v8.7a9.1,9.1,0,0,0,.1,1.8,3.9,3.9,0,0,0,.5,1.3A2.3,2.3,0,0,0,118.7,48.5Z" transform="translate(0 -2.2)"/>
    <path class="cls-3" d="M128.1,49.6V30.7h4.6l1.7.2a3.3,3.3,0,0,1,1.2.6,3.1,3.1,0,0,1,.7,1,4.8,4.8,0,0,1,.4,1.3,9.2,9.2,0,0,1,.1,1.5,10.6,10.6,0,0,1-.1,1.3,5.7,5.7,0,0,1-.3,1.1,3.5,3.5,0,0,1-.5,1l-.8.7-1.2.4,3,9.7h-1.3l-2.9-9.5h-3.5v9.5Zm1.3-10.5h3.2a3.8,3.8,0,0,0,1.5-.2,1.9,1.9,0,0,0,.9-.8,3.4,3.4,0,0,0,.4-1.2,8.4,8.4,0,0,0,.1-1.6,4.7,4.7,0,0,0-.6-2.8,2.7,2.7,0,0,0-2.3-.9h-3.2Z" transform="translate(0 -2.2)"/>
    <path class="cls-3" d="M140,49.6V30.7h1.3V49.6Z" transform="translate(0 -2.2)"/>
    <path class="cls-3" d="M149,49.9a5.6,5.6,0,0,1-1.9-.3,3.6,3.6,0,0,1-1.3-.8,3.7,3.7,0,0,1-.8-1.2,6.4,6.4,0,0,1-.4-1.5,12.4,12.4,0,0,1-.1-1.8v-8a11.7,11.7,0,0,1,.1-1.8,6.3,6.3,0,0,1,.4-1.5,3.6,3.6,0,0,1,.8-1.2,3.7,3.7,0,0,1,1.3-.8,5.7,5.7,0,0,1,1.9-.3,5.1,5.1,0,0,1,2.1.4,3,3,0,0,1,1.3,1.1,4.9,4.9,0,0,1,.7,1.7,9.8,9.8,0,0,1,.2,2.2v1h-1.2v-1a6.1,6.1,0,0,0-.7-3.2,2.6,2.6,0,0,0-2.4-1.1,4,4,0,0,0-1.7.3,2.2,2.2,0,0,0-1,.9,4.4,4.4,0,0,0-.5,1.4,10.5,10.5,0,0,0-.1,1.8v8.3a11.4,11.4,0,0,0,.1,1.5,5.1,5.1,0,0,0,.3,1.2,2.6,2.6,0,0,0,.6.9l1,.6,1.4.2a3.6,3.6,0,0,0,1.5-.3,2.1,2.1,0,0,0,1-.9,4.3,4.3,0,0,0,.5-1.3,9.8,9.8,0,0,0,.1-1.8V43.4h1.2v.9a12.3,12.3,0,0,1-.1,1.8,6.2,6.2,0,0,1-.4,1.5,3.6,3.6,0,0,1-.8,1.2,3.4,3.4,0,0,1-1.2.7A5.1,5.1,0,0,1,149,49.9Z" transform="translate(0 -2.2)"/>
    <path class="cls-3" d="M155.2,49.6l4-18.9h1.5l4,18.9h-1.3l-1-5.2h-4.9l-1,5.2Zm2.4-6.2h4.5l-2.3-11.2Z" transform="translate(0 -2.2)"/>
    <path class="cls-3" d="M167.1,49.6V30.7h1.3V48.6H174v1Z" transform="translate(0 -2.2)"/>
    <path class="cls-3" d="M180.2,49.6V30.7h3.9l1.8.2a3.6,3.6,0,0,1,1.3.7,3.2,3.2,0,0,1,.8,1,4.7,4.7,0,0,1,.4,1.3,8.7,8.7,0,0,1,.1,1.5,7.3,7.3,0,0,1-.1,1.2,6,6,0,0,1-.3,1.2,2.7,2.7,0,0,1-.7,1,2.4,2.4,0,0,1-1.1.6,3.2,3.2,0,0,1,1.3.8,3.3,3.3,0,0,1,.8,1.2,6.9,6.9,0,0,1,.4,1.3,8.4,8.4,0,0,1,.1,1.4q0,.8-.1,1.4a9.2,9.2,0,0,1-.2,1.3,3.9,3.9,0,0,1-.5,1.1l-.8.9a3,3,0,0,1-1.1.6l-1.6.2ZM181.4,39h3.2a2.7,2.7,0,0,0,1.3-.3,1.9,1.9,0,0,0,.8-.8,3.8,3.8,0,0,0,.4-1.1,7.2,7.2,0,0,0,.1-1.4,8.4,8.4,0,0,0-.1-1.2,3.8,3.8,0,0,0-.3-1,2.1,2.1,0,0,0-.6-.8l-1-.5-1.5-.2h-2.3Zm0,9.6h3a2.7,2.7,0,0,0,2.5-1,6.7,6.7,0,0,0,.7-3.4q0-4.1-3-4.1h-3.2Z" transform="translate(0 -2.2)"/>
    <path class="cls-3" d="M196,49.9a6.6,6.6,0,0,1-2.3-.3,3.2,3.2,0,0,1-1.5-1,4.1,4.1,0,0,1-.7-1.5,7,7,0,0,1-.2-1.9V30.7h1.2V45.2a5.9,5.9,0,0,0,.2,1.5,3.2,3.2,0,0,0,.5,1.1,2.3,2.3,0,0,0,1.1.8,4.7,4.7,0,0,0,1.7.3q3.4,0,3.4-3.6V30.7h1.2V45.2Q200.7,49.9,196,49.9Z" transform="translate(0 -2.2)"/>
    <path class="cls-3" d="M204,49.6V30.7h4.6l1.7.2a3.3,3.3,0,0,1,1.2.6,3.1,3.1,0,0,1,.7,1,4.8,4.8,0,0,1,.4,1.3,9.3,9.3,0,0,1,.1,1.5,10.5,10.5,0,0,1-.1,1.3,5.7,5.7,0,0,1-.3,1.1,3.5,3.5,0,0,1-.5,1l-.8.7-1.2.4,3,9.7h-1.3l-2.9-9.5h-3.5v9.5Zm1.3-10.5h3.2a3.8,3.8,0,0,0,1.5-.2,1.9,1.9,0,0,0,.9-.8,3.4,3.4,0,0,0,.4-1.2,8.4,8.4,0,0,0,.1-1.6,4.7,4.7,0,0,0-.6-2.8,2.7,2.7,0,0,0-2.3-.9h-3.2Z" transform="translate(0 -2.2)"/>
    <path class="cls-3" d="M215.8,49.6V30.7h6.5v1h-5.3v7.6h4.3v1h-4.3v8.3h5.3v1Z" transform="translate(0 -2.2)"/>
    <path class="cls-3" d="M224,49.6l4-18.9h1.5l4,18.9h-1.3l-1-5.2h-4.9l-1,5.2Zm2.4-6.2h4.5l-2.3-11.2Z" transform="translate(0 -2.2)"/>
    <path class="cls-3" d="M240.3,49.9a6.6,6.6,0,0,1-2.3-.3,3.2,3.2,0,0,1-1.5-1,4.1,4.1,0,0,1-.7-1.5,7,7,0,0,1-.2-1.9V30.7h1.2V45.2a5.9,5.9,0,0,0,.2,1.5,3.2,3.2,0,0,0,.5,1.1,2.3,2.3,0,0,0,1.1.8,4.7,4.7,0,0,0,1.7.3q3.4,0,3.4-3.6V30.7H245V45.2Q245,49.9,240.3,49.9Z" transform="translate(0 -2.2)"/>
  </g>
</svg>
